<svg width="473" height="474" viewBox="0 0 473 474" fill="none" xmlns="http://www.w3.org/2000/svg">
<g id="Group 1">
<g id="Cadran" filter="url(#filter0_d)">
<circle cx="231" cy="231" r="225" fill="#EDDDD4"/>
<circle cx="231" cy="231" r="228" stroke="#1DAFB9" stroke-width="6"/>
</g>
<g id="Hours">
<path id="12" d="M217.438 50.4375C217.146 51.5625 216.812 52.7917 216.438 54.125C216.104 55.4167 215.833 56.75 215.625 58.125C215.417 59.5 215.292 60.875 215.25 62.25C215.25 63.625 215.438 64.9375 215.812 66.1875C215.438 66.3958 215 66.5417 214.5 66.625C214 66.75 213.521 66.8333 213.062 66.875C212.562 66.9583 212.042 66.9792 211.5 66.9375C210.792 66.9375 210.25 66.7917 209.875 66.5C209.5 66.2083 209.229 65.8333 209.062 65.375C208.938 64.875 208.917 64.3125 209 63.6875C209.083 63.0208 209.25 62.3333 209.5 61.625C209.917 60.2083 210.771 57.2708 212.062 52.8125C213.396 48.3542 214.812 42.25 216.312 34.5C216.562 33.1667 216.771 32 216.938 31C217.146 29.9583 217.333 29.0833 217.5 28.375C216.917 28 216.333 27.5625 215.75 27.0625C215.167 26.5208 214.708 26.0208 214.375 25.5625C214.417 25.4375 214.729 25.0417 215.312 24.375C215.938 23.7083 216.646 23 217.438 22.25C218.229 21.5 219.021 20.8333 219.812 20.25C220.604 19.6667 221.25 19.375 221.75 19.375C221.958 19.375 222.208 19.4792 222.5 19.6875C222.833 19.8958 223.146 20.1458 223.438 20.4375C223.771 20.6875 224.021 20.9792 224.188 21.3125C224.396 21.6042 224.479 21.8542 224.438 22.0625L217.438 50.4375ZM245.875 67.875C245.792 67.25 245.25 66.7708 244.25 66.4375C243.292 66.1042 242.229 65.8542 241.062 65.6875C239.688 65.5208 238.167 65.4167 236.5 65.375C235.292 65.375 234.167 65.4375 233.125 65.5625C232.208 65.6458 231.312 65.7917 230.438 66C229.604 66.25 229.021 66.5625 228.688 66.9375C228.146 67.3542 227.438 67.4583 226.562 67.25C225.688 67.0417 225.104 66.3333 224.812 65.125C224.729 64.6667 224.604 64.2292 224.438 63.8125C224.312 63.4792 224.188 63.125 224.062 62.75C223.896 62.375 223.708 62.0833 223.5 61.875C224.125 60.625 224.792 59.5 225.5 58.5C226.25 57.5 227.062 56.5208 227.938 55.5625C228.854 54.6042 229.854 53.6458 230.938 52.6875C232.062 51.7292 233.312 50.6458 234.688 49.4375C235.979 48.3542 237.333 47.0625 238.75 45.5625C240.208 44.0625 241.542 42.375 242.75 40.5C244 38.625 245.042 36.5833 245.875 34.375C246.75 32.125 247.25 29.7083 247.375 27.125C247.458 25 247.083 23.5208 246.25 22.6875C245.458 21.8542 244.458 21.4375 243.25 21.4375C242.667 21.4375 242 21.6875 241.25 22.1875C240.5 22.6458 239.771 23.3125 239.062 24.1875C238.396 25.0208 237.792 26 237.25 27.125C236.75 28.25 236.479 29.4375 236.438 30.6875C236.396 31.0208 236.417 31.3333 236.5 31.625C236.583 31.875 236.667 32.125 236.75 32.375C236.875 32.5833 237.062 32.75 237.312 32.875C236.646 33.4167 235.979 33.7708 235.312 33.9375C234.979 34.0208 234.667 34.0625 234.375 34.0625C234.042 34.0625 233.646 34.0417 233.188 34C232.729 33.9167 232.292 33.7708 231.875 33.5625C231.5 33.3125 231.167 32.9583 230.875 32.5C230.625 32.0417 230.521 31.4167 230.562 30.625C230.604 29.8333 230.938 28.7708 231.562 27.4375C232.229 26.1042 233.208 24.8125 234.5 23.5625C235.833 22.2708 237.479 21.1667 239.438 20.25C241.396 19.3333 243.688 18.875 246.312 18.875C248.062 18.875 249.396 19.25 250.312 20C251.271 20.75 251.958 21.6458 252.375 22.6875C252.792 23.7292 253.021 24.7917 253.062 25.875C253.104 26.9167 253.104 27.7708 253.062 28.4375C252.979 30.1875 252.562 31.9792 251.812 33.8125C251.104 35.6458 250.167 37.4583 249 39.25C247.875 41.0417 246.583 42.7917 245.125 44.5C243.708 46.2083 242.271 47.8125 240.812 49.3125C239.354 50.8125 237.917 52.1875 236.5 53.4375C235.125 54.6875 233.917 55.75 232.875 56.625C231.75 57.5833 230.875 58.5417 230.25 59.5C229.667 60.4583 229.229 61.3542 228.938 62.1875C229.938 61.6875 231.312 61.1875 233.062 60.6875C234.812 60.1875 236.812 59.9375 239.062 59.9375C240.396 59.9375 241.625 60 242.75 60.125C243.708 60.2083 244.625 60.375 245.5 60.625C246.375 60.8333 246.979 61.1458 247.312 61.5625C247.396 62.0208 247.438 62.4375 247.438 62.8125C247.438 63.1875 247.417 63.5417 247.375 63.875C247.333 64.25 247.271 64.5833 247.188 64.875C247.104 65.2083 247 65.5417 246.875 65.875C246.667 66.4583 246.333 67.125 245.875 67.875Z" fill="#191919"/>
<path id="1" d="M333.424 65.7051C333.287 66.2324 333.131 66.8086 332.955 67.4336C332.799 68.0391 332.672 68.6641 332.574 69.3086C332.477 69.9531 332.418 70.5977 332.398 71.2422C332.398 71.8867 332.486 72.502 332.662 73.0879C332.486 73.1855 332.281 73.2539 332.047 73.293C331.812 73.3516 331.588 73.3906 331.373 73.4102C331.139 73.4492 330.895 73.459 330.641 73.4395C330.309 73.4395 330.055 73.3711 329.879 73.2344C329.703 73.0977 329.576 72.9219 329.498 72.707C329.439 72.4727 329.43 72.209 329.469 71.916C329.508 71.6035 329.586 71.2812 329.703 70.9492C329.898 70.2852 330.299 68.9082 330.904 66.8184C331.529 64.7285 332.193 61.8672 332.896 58.2344C333.014 57.6094 333.111 57.0625 333.189 56.5938C333.287 56.1055 333.375 55.6953 333.453 55.3633C333.18 55.1875 332.906 54.9824 332.633 54.748C332.359 54.4941 332.145 54.2598 331.988 54.0449C332.008 53.9863 332.154 53.8008 332.428 53.4883C332.721 53.1758 333.053 52.8438 333.424 52.4922C333.795 52.1406 334.166 51.8281 334.537 51.5547C334.908 51.2812 335.211 51.1445 335.445 51.1445C335.543 51.1445 335.66 51.1934 335.797 51.291C335.953 51.3887 336.1 51.5059 336.236 51.6426C336.393 51.7598 336.51 51.8965 336.588 52.0527C336.686 52.1895 336.725 52.3066 336.705 52.4043L333.424 65.7051Z" fill="#191919"/>
<path id="11" d="M126.424 65.7051C126.287 66.2324 126.131 66.8086 125.955 67.4336C125.799 68.0391 125.672 68.6641 125.574 69.3086C125.477 69.9531 125.418 70.5977 125.398 71.2422C125.398 71.8867 125.486 72.502 125.662 73.0879C125.486 73.1855 125.281 73.2539 125.047 73.293C124.812 73.3516 124.588 73.3906 124.373 73.4102C124.139 73.4492 123.895 73.459 123.641 73.4395C123.309 73.4395 123.055 73.3711 122.879 73.2344C122.703 73.0977 122.576 72.9219 122.498 72.707C122.439 72.4727 122.43 72.209 122.469 71.916C122.508 71.6035 122.586 71.2812 122.703 70.9492C122.898 70.2852 123.299 68.9082 123.904 66.8184C124.529 64.7285 125.193 61.8672 125.896 58.2344C126.014 57.6094 126.111 57.0625 126.189 56.5938C126.287 56.1055 126.375 55.6953 126.453 55.3633C126.18 55.1875 125.906 54.9824 125.633 54.748C125.359 54.4941 125.145 54.2598 124.988 54.0449C125.008 53.9863 125.154 53.8008 125.428 53.4883C125.721 53.1758 126.053 52.8438 126.424 52.4922C126.795 52.1406 127.166 51.8281 127.537 51.5547C127.908 51.2812 128.211 51.1445 128.445 51.1445C128.543 51.1445 128.66 51.1934 128.797 51.291C128.953 51.3887 129.1 51.5059 129.236 51.6426C129.393 51.7598 129.51 51.8965 129.588 52.0527C129.686 52.1895 129.725 52.3066 129.705 52.4043L126.424 65.7051ZM134.598 65.7051C134.461 66.2324 134.305 66.8086 134.129 67.4336C133.973 68.0391 133.846 68.6641 133.748 69.3086C133.65 69.9531 133.592 70.5977 133.572 71.2422C133.572 71.8867 133.66 72.502 133.836 73.0879C133.66 73.1855 133.455 73.2539 133.221 73.293C132.986 73.3516 132.762 73.3906 132.547 73.4102C132.312 73.4492 132.068 73.459 131.814 73.4395C131.482 73.4395 131.229 73.3711 131.053 73.2344C130.877 73.0977 130.75 72.9219 130.672 72.707C130.613 72.4727 130.604 72.209 130.643 71.916C130.682 71.6035 130.76 71.2812 130.877 70.9492C131.072 70.2852 131.473 68.9082 132.078 66.8184C132.703 64.7285 133.367 61.8672 134.07 58.2344C134.188 57.6094 134.285 57.0625 134.363 56.5938C134.461 56.1055 134.549 55.6953 134.627 55.3633C134.354 55.1875 134.08 54.9824 133.807 54.748C133.533 54.4941 133.318 54.2598 133.162 54.0449C133.182 53.9863 133.328 53.8008 133.602 53.4883C133.895 53.1758 134.227 52.8438 134.598 52.4922C134.969 52.1406 135.34 51.8281 135.711 51.5547C136.082 51.2812 136.385 51.1445 136.619 51.1445C136.717 51.1445 136.834 51.1934 136.971 51.291C137.127 51.3887 137.273 51.5059 137.41 51.6426C137.566 51.7598 137.684 51.8965 137.762 52.0527C137.859 52.1895 137.898 52.3066 137.879 52.4043L134.598 65.7051Z" fill="#191919"/>
<path id="2" d="M402.58 140.879C402.541 140.586 402.287 140.361 401.818 140.205C401.369 140.049 400.871 139.932 400.324 139.854C399.68 139.775 398.967 139.727 398.186 139.707C397.619 139.707 397.092 139.736 396.604 139.795C396.174 139.834 395.754 139.902 395.344 140C394.953 140.117 394.68 140.264 394.523 140.439C394.27 140.635 393.938 140.684 393.527 140.586C393.117 140.488 392.844 140.156 392.707 139.59C392.668 139.375 392.609 139.17 392.531 138.975C392.473 138.818 392.414 138.652 392.355 138.477C392.277 138.301 392.189 138.164 392.092 138.066C392.385 137.48 392.697 136.953 393.029 136.484C393.381 136.016 393.762 135.557 394.172 135.107C394.602 134.658 395.07 134.209 395.578 133.76C396.105 133.311 396.691 132.803 397.336 132.236C397.941 131.729 398.576 131.123 399.24 130.42C399.924 129.717 400.549 128.926 401.115 128.047C401.701 127.168 402.189 126.211 402.58 125.176C402.99 124.121 403.225 122.988 403.283 121.777C403.322 120.781 403.146 120.088 402.756 119.697C402.385 119.307 401.916 119.111 401.35 119.111C401.076 119.111 400.764 119.229 400.412 119.463C400.061 119.678 399.719 119.99 399.387 120.4C399.074 120.791 398.791 121.25 398.537 121.777C398.303 122.305 398.176 122.861 398.156 123.447C398.137 123.604 398.146 123.75 398.186 123.887C398.225 124.004 398.264 124.121 398.303 124.238C398.361 124.336 398.449 124.414 398.566 124.473C398.254 124.727 397.941 124.893 397.629 124.971C397.473 125.01 397.326 125.029 397.189 125.029C397.033 125.029 396.848 125.02 396.633 125C396.418 124.961 396.213 124.893 396.018 124.795C395.842 124.678 395.686 124.512 395.549 124.297C395.432 124.082 395.383 123.789 395.402 123.418C395.422 123.047 395.578 122.549 395.871 121.924C396.184 121.299 396.643 120.693 397.248 120.107C397.873 119.502 398.645 118.984 399.562 118.555C400.48 118.125 401.555 117.91 402.785 117.91C403.605 117.91 404.23 118.086 404.66 118.438C405.109 118.789 405.432 119.209 405.627 119.697C405.822 120.186 405.93 120.684 405.949 121.191C405.969 121.68 405.969 122.08 405.949 122.393C405.91 123.213 405.715 124.053 405.363 124.912C405.031 125.771 404.592 126.621 404.045 127.461C403.518 128.301 402.912 129.121 402.229 129.922C401.564 130.723 400.891 131.475 400.207 132.178C399.523 132.881 398.85 133.525 398.186 134.111C397.541 134.697 396.975 135.195 396.486 135.605C395.959 136.055 395.549 136.504 395.256 136.953C394.982 137.402 394.777 137.822 394.641 138.213C395.109 137.979 395.754 137.744 396.574 137.51C397.395 137.275 398.332 137.158 399.387 137.158C400.012 137.158 400.588 137.188 401.115 137.246C401.564 137.285 401.994 137.363 402.404 137.48C402.814 137.578 403.098 137.725 403.254 137.92C403.293 138.135 403.312 138.33 403.312 138.506C403.312 138.682 403.303 138.848 403.283 139.004C403.264 139.18 403.234 139.336 403.195 139.473C403.156 139.629 403.107 139.785 403.049 139.941C402.951 140.215 402.795 140.527 402.58 140.879Z" fill="#191919"/>
<path id="4" d="M399.299 340.807C399.455 340.104 399.66 339.264 399.914 338.287C400.168 337.311 400.432 336.285 400.705 335.211C399.729 335.25 398.723 335.328 397.688 335.445C396.652 335.562 395.529 335.787 394.318 336.119C394.162 336.021 394.025 335.895 393.908 335.738C393.791 335.582 393.684 335.436 393.586 335.299C393.488 335.143 393.391 334.977 393.293 334.801C393.117 334.41 393.02 334.049 393 333.717C392.98 333.365 393.137 333.053 393.469 332.779C393.645 332.643 393.879 332.418 394.172 332.105C394.484 331.793 394.846 331.412 395.256 330.963C395.666 330.514 396.115 330.006 396.604 329.439C397.111 328.873 397.648 328.268 398.215 327.623C399.328 326.334 400.158 325.338 400.705 324.635C401.252 323.912 401.564 323.404 401.643 323.111C402.111 322.916 402.531 322.77 402.902 322.672C403.273 322.555 403.596 322.457 403.869 322.379L404.66 322.203C405.227 322.105 405.578 322.145 405.715 322.32C405.852 322.496 405.842 322.867 405.686 323.434C405.607 323.707 405.48 324.195 405.305 324.898C405.129 325.582 404.924 326.373 404.689 327.271C404.475 328.17 404.25 329.137 404.016 330.172C403.801 331.188 403.596 332.164 403.4 333.102C403.693 333.141 403.957 333.209 404.191 333.307C404.426 333.385 404.621 333.502 404.777 333.658C404.934 333.795 405.021 333.98 405.041 334.215C405.08 334.43 405.041 334.693 404.924 335.006C404.885 335.123 404.826 335.26 404.748 335.416C404.631 335.689 404.484 336.041 404.309 336.471C404.211 336.314 404.094 336.178 403.957 336.061C403.82 335.924 403.674 335.807 403.518 335.709C403.342 335.611 403.166 335.523 402.99 335.445C402.697 337.203 402.463 338.814 402.287 340.279C402.111 341.744 402.043 342.916 402.082 343.795C401.848 344.01 401.604 344.166 401.35 344.264C401.115 344.381 400.9 344.459 400.705 344.498C400.471 344.557 400.246 344.586 400.031 344.586C399.562 344.586 399.25 344.439 399.094 344.146C398.938 343.873 398.869 343.512 398.889 343.062C398.908 342.711 398.957 342.34 399.035 341.949C399.113 341.539 399.201 341.158 399.299 340.807ZM397.277 333.6C398.195 333.561 398.957 333.502 399.562 333.424C400.188 333.326 400.744 333.248 401.232 333.189C401.408 332.506 401.574 331.842 401.73 331.197C401.906 330.553 402.072 329.947 402.229 329.381C402.541 328.229 402.795 327.242 402.99 326.422C403.186 325.602 403.342 324.928 403.459 324.4C403.225 324.693 402.941 325.035 402.609 325.426C402.297 325.816 401.955 326.236 401.584 326.686C401.213 327.115 400.832 327.564 400.441 328.033C400.07 328.482 399.709 328.912 399.357 329.322C398.693 330.123 398.02 330.924 397.336 331.725C396.652 332.506 396.076 333.18 395.607 333.746C395.822 333.707 396.066 333.688 396.34 333.688C396.633 333.668 396.945 333.639 397.277 333.6Z" fill="#191919"/>
<path id="8" d="M60.5176 338.785C60.498 339.43 60.332 340.104 60.0195 340.807C59.7266 341.51 59.3066 342.154 58.7598 342.74C58.2324 343.326 57.6074 343.805 56.8848 344.176C56.1621 344.547 55.3809 344.732 54.541 344.732C53.8379 344.732 53.1836 344.664 52.5781 344.527C51.9922 344.391 51.4746 344.146 51.0254 343.795C50.5957 343.443 50.2637 342.984 50.0293 342.418C49.7949 341.832 49.6875 341.1 49.707 340.221C49.7266 339.381 49.9023 338.59 50.2344 337.848C50.5664 337.086 50.9863 336.373 51.4941 335.709C52.002 335.045 52.5684 334.439 53.1934 333.893C53.8184 333.326 54.4238 332.818 55.0098 332.369C54.4629 331.51 54.082 330.748 53.8672 330.084C53.6719 329.4 53.584 328.697 53.6035 327.975C53.623 327.564 53.7305 327.018 53.9258 326.334C54.1211 325.65 54.4434 324.986 54.8926 324.342C55.3613 323.697 55.9668 323.141 56.709 322.672C57.4707 322.184 58.4082 321.939 59.5215 321.939C60.127 321.939 60.6641 322.037 61.1328 322.232C61.6016 322.428 61.9824 322.691 62.2754 323.023C62.5879 323.355 62.8125 323.736 62.9492 324.166C63.1055 324.576 63.1836 324.996 63.1836 325.426C63.1445 326.109 62.9688 326.783 62.6562 327.447C62.3438 328.092 61.9434 328.707 61.4551 329.293C60.9863 329.879 60.4688 330.426 59.9023 330.934C59.3359 331.441 58.7891 331.881 58.2617 332.252C58.8672 333.15 59.3945 334.156 59.8438 335.27C60.3125 336.363 60.5371 337.535 60.5176 338.785ZM56.1816 326.773C56.1621 327.398 56.2207 328.014 56.3574 328.619C56.5137 329.225 56.8164 329.898 57.2656 330.641C57.7734 330.211 58.2715 329.762 58.7598 329.293C59.2676 328.824 59.7168 328.346 60.1074 327.857C60.5176 327.369 60.8398 326.9 61.0742 326.451C61.3281 325.982 61.4551 325.543 61.4551 325.133C61.4746 324.508 61.3184 324.01 60.9863 323.639C60.6543 323.248 60.1953 323.053 59.6094 323.053C59.0039 323.053 58.4863 323.18 58.0566 323.434C57.627 323.668 57.2754 323.971 57.002 324.342C56.7285 324.693 56.5234 325.094 56.3867 325.543C56.25 325.973 56.1816 326.383 56.1816 326.773ZM57.793 339.283C57.8125 338.639 57.7832 338.072 57.7051 337.584C57.627 337.096 57.5098 336.637 57.3535 336.207C57.1973 335.777 57.002 335.367 56.7676 334.977C56.5332 334.586 56.2695 334.186 55.9766 333.775C55.5078 334.166 55.0391 334.625 54.5703 335.152C54.1016 335.66 53.6719 336.207 53.2812 336.793C52.8906 337.379 52.5684 337.975 52.3145 338.58C52.0801 339.186 51.9531 339.781 51.9336 340.367C51.9141 340.934 51.9531 341.412 52.0508 341.803C52.168 342.174 52.3145 342.477 52.4902 342.711C52.6855 342.926 52.9102 343.082 53.1641 343.18C53.418 343.258 53.6719 343.297 53.9258 343.297C54.2383 343.297 54.6094 343.238 55.0391 343.121C55.4688 342.984 55.8887 342.76 56.2988 342.447C56.709 342.135 57.0508 341.725 57.3242 341.217C57.6172 340.689 57.7734 340.045 57.793 339.283Z" fill="#191919"/>
<path id="10" d="M54.4238 135.705C54.2871 136.232 54.1309 136.809 53.9551 137.434C53.7988 138.039 53.6719 138.664 53.5742 139.309C53.4766 139.953 53.418 140.598 53.3984 141.242C53.3984 141.887 53.4863 142.502 53.6621 143.088C53.4863 143.186 53.2812 143.254 53.0469 143.293C52.8125 143.352 52.5879 143.391 52.373 143.41C52.1387 143.449 51.8945 143.459 51.6406 143.439C51.3086 143.439 51.0547 143.371 50.8789 143.234C50.7031 143.098 50.5762 142.922 50.498 142.707C50.4395 142.473 50.4297 142.209 50.4688 141.916C50.5078 141.604 50.5859 141.281 50.7031 140.949C50.8984 140.285 51.2988 138.908 51.9043 136.818C52.5293 134.729 53.1934 131.867 53.8965 128.234C54.0137 127.609 54.1113 127.062 54.1895 126.594C54.2871 126.105 54.375 125.695 54.4531 125.363C54.1797 125.188 53.9062 124.982 53.6328 124.748C53.3594 124.494 53.1445 124.26 52.9883 124.045C53.0078 123.986 53.1543 123.801 53.4277 123.488C53.7207 123.176 54.0527 122.844 54.4238 122.492C54.7949 122.141 55.166 121.828 55.5371 121.555C55.9082 121.281 56.2109 121.145 56.4453 121.145C56.543 121.145 56.6602 121.193 56.7969 121.291C56.9531 121.389 57.0996 121.506 57.2363 121.643C57.3926 121.76 57.5098 121.896 57.5879 122.053C57.6855 122.189 57.7246 122.307 57.7051 122.404L54.4238 135.705ZM67.7832 120.91C68.5254 120.91 69.1602 121.193 69.6875 121.76C70.2344 122.307 70.6641 123.039 70.9766 123.957C71.2891 124.855 71.4844 125.9 71.5625 127.092C71.6602 128.264 71.6406 129.475 71.5039 130.725C71.2109 133.244 70.7129 135.344 70.0098 137.023C69.3066 138.684 68.5352 140.012 67.6953 141.008C66.875 141.984 66.0352 142.678 65.1758 143.088C64.3359 143.498 63.6133 143.703 63.0078 143.703C62.5391 143.703 62.0703 143.557 61.6016 143.264C61.1523 142.971 60.7422 142.502 60.3711 141.857C60 141.213 59.6973 140.393 59.4629 139.396C59.2285 138.381 59.1016 137.16 59.082 135.734C59.0625 134.836 59.1602 133.85 59.375 132.775C59.5898 131.682 59.8828 130.588 60.2539 129.494C60.6445 128.381 61.1035 127.316 61.6309 126.301C62.1777 125.266 62.7734 124.348 63.418 123.547C64.0625 122.746 64.7559 122.111 65.498 121.643C66.2402 121.154 67.002 120.91 67.7832 120.91ZM69.248 129.934C69.248 129.836 69.2676 129.592 69.3066 129.201C69.3457 128.791 69.3652 128.322 69.3652 127.795C69.3848 127.248 69.375 126.682 69.3359 126.096C69.3164 125.51 69.2383 124.973 69.1016 124.484C68.9648 123.977 68.7598 123.566 68.4863 123.254C68.2324 122.922 67.8906 122.756 67.4609 122.756C67.0312 122.756 66.4844 123.127 65.8203 123.869C65.1758 124.611 64.541 125.637 63.916 126.945C63.3105 128.254 62.7832 129.816 62.334 131.633C61.9043 133.43 61.6992 135.393 61.7188 137.521C61.7188 137.736 61.7383 138.088 61.7773 138.576C61.8359 139.045 61.9238 139.523 62.041 140.012C62.1777 140.5 62.3633 140.93 62.5977 141.301C62.832 141.672 63.1348 141.857 63.5059 141.857C64.0723 141.857 64.6582 141.496 65.2637 140.773C65.8887 140.031 66.4648 139.084 66.9922 137.932C67.5391 136.779 68.0078 135.5 68.3984 134.094C68.8086 132.668 69.0918 131.281 69.248 129.934Z" fill="#191919"/>
<path id="5" d="M335.57 389.082C335.59 389.062 335.6 389.062 335.6 389.082H335.57ZM338.646 390.664C338.1 390.664 337.611 390.713 337.182 390.811C337.045 391.201 336.879 391.699 336.684 392.305C336.488 392.91 336.273 393.574 336.039 394.297C335.824 395 335.609 395.732 335.395 396.494C335.199 397.256 335.023 397.998 334.867 398.721C335.062 398.486 335.307 398.242 335.6 397.988C335.893 397.715 336.225 397.471 336.596 397.256C336.967 397.021 337.367 396.826 337.797 396.67C338.227 396.514 338.676 396.436 339.145 396.436C339.789 396.436 340.326 396.553 340.756 396.787C341.205 397.021 341.547 397.344 341.781 397.754C342.035 398.145 342.201 398.604 342.279 399.131C342.377 399.658 342.396 400.205 342.338 400.771C342.24 401.963 341.967 403.154 341.518 404.346C341.068 405.537 340.492 406.611 339.789 407.568C339.086 408.506 338.285 409.277 337.387 409.883C336.488 410.469 335.551 410.762 334.574 410.762C334.066 410.762 333.588 410.645 333.139 410.41C332.709 410.195 332.328 409.912 331.996 409.561C331.664 409.209 331.4 408.818 331.205 408.389C331.029 407.939 330.961 407.5 331 407.07C331.059 406.27 331.518 405.547 332.377 404.902C332.533 404.766 332.699 404.648 332.875 404.551C333.012 404.453 333.158 404.365 333.314 404.287C333.471 404.189 333.617 404.121 333.754 404.082C333.637 405.02 333.676 405.742 333.871 406.25C334.066 406.758 334.311 407.129 334.604 407.363C334.936 407.637 335.336 407.793 335.805 407.832C336.43 407.832 337.006 407.656 337.533 407.305C338.061 406.934 338.51 406.465 338.881 405.898C339.271 405.332 339.584 404.688 339.818 403.965C340.053 403.242 340.199 402.51 340.258 401.768C340.355 400.791 340.229 400.029 339.877 399.482C339.525 398.936 339.076 398.662 338.529 398.662C337.943 398.662 337.396 398.857 336.889 399.248C336.4 399.619 335.922 400.088 335.453 400.654C335.277 400.869 335.082 401.016 334.867 401.094C334.652 401.152 334.438 401.182 334.223 401.182C334.027 401.182 333.842 401.152 333.666 401.094C333.49 401.016 333.354 400.947 333.256 400.889C333.197 400.85 333.119 400.791 333.021 400.713C332.924 400.615 332.836 400.479 332.758 400.303C332.68 400.127 332.631 399.893 332.611 399.6C332.611 399.307 332.689 398.926 332.846 398.457C333.002 397.969 333.197 397.383 333.432 396.699C333.666 395.996 333.9 395.273 334.135 394.531C334.369 393.789 334.594 393.076 334.809 392.393C335.023 391.709 335.189 391.133 335.307 390.664C335.482 390 335.58 389.58 335.6 389.404C335.639 389.209 335.639 389.102 335.6 389.082C335.697 389.062 335.932 389.004 336.303 388.906C336.674 388.809 337.133 388.711 337.68 388.613C338.246 388.516 338.871 388.428 339.555 388.35C340.258 388.271 340.961 388.232 341.664 388.232C342.426 388.232 343.041 388.271 343.51 388.35C343.979 388.408 344.32 388.525 344.535 388.701C344.77 388.877 344.896 389.131 344.916 389.463C344.936 389.775 344.877 390.176 344.74 390.664C344.682 390.84 344.604 391.025 344.506 391.221C344.408 391.377 344.281 391.562 344.125 391.777C343.988 391.973 343.812 392.178 343.598 392.393C343.383 391.963 343.002 391.631 342.455 391.396C341.928 391.143 341.381 390.967 340.814 390.869C340.15 390.752 339.428 390.684 338.646 390.664Z" fill="#191919"/>
<path id="7" d="M137.539 392.188C137.344 392.441 137.012 392.92 136.543 393.623C136.074 394.326 135.537 395.195 134.932 396.23C134.326 397.246 133.691 398.379 133.027 399.629C132.363 400.879 131.738 402.178 131.152 403.525C130.723 404.541 130.371 405.479 130.098 406.338C129.98 406.709 129.873 407.08 129.775 407.451C129.697 407.822 129.639 408.174 129.6 408.506C129.561 408.838 129.551 409.131 129.57 409.385C129.609 409.639 129.697 409.834 129.834 409.971C129.287 410.146 128.799 410.264 128.369 410.322C128.135 410.361 127.91 410.381 127.695 410.381C127.168 410.42 126.816 410.254 126.641 409.883C126.465 409.512 126.445 409.033 126.582 408.447C126.719 407.764 126.982 406.914 127.373 405.898C127.764 404.883 128.242 403.799 128.809 402.646C129.375 401.475 130 400.283 130.684 399.072C131.387 397.842 132.119 396.68 132.881 395.586C133.564 394.629 134.229 393.691 134.873 392.773C135.537 391.855 136.074 391.104 136.484 390.518C136.113 390.42 135.605 390.361 134.961 390.342C134.316 390.303 133.516 390.342 132.559 390.459C131.934 390.537 131.318 390.664 130.713 390.84C130.205 390.996 129.658 391.201 129.072 391.455C128.506 391.689 128.027 391.992 127.637 392.363C127.578 392.207 127.539 392.051 127.52 391.895C127.5 391.738 127.48 391.592 127.461 391.455C127.441 391.299 127.432 391.143 127.432 390.986C127.432 390.791 127.451 390.576 127.49 390.342C127.529 390.088 127.598 389.844 127.695 389.609C127.793 389.375 127.939 389.17 128.135 388.994C128.33 388.799 128.584 388.672 128.896 388.613C129.229 388.555 129.736 388.496 130.42 388.438C131.104 388.359 131.816 388.301 132.559 388.262C133.32 388.223 134.053 388.193 134.756 388.174C135.459 388.154 136.006 388.164 136.396 388.203C137.178 388.262 137.705 388.398 137.979 388.613C138.271 388.828 138.408 389.209 138.389 389.756C138.389 390.029 138.379 390.264 138.359 390.459C138.359 390.635 138.33 390.811 138.271 390.986C138.213 391.162 138.125 391.348 138.008 391.543C137.891 391.719 137.734 391.934 137.539 392.188Z" fill="#191919"/>
<path id="3" d="M434.562 230.375C434.521 232 434.146 233.771 433.438 235.688C432.729 237.562 431.729 239.312 430.438 240.938C429.188 242.562 427.667 243.917 425.875 245C424.125 246.083 422.167 246.625 420 246.625C417.792 246.625 416.021 246.292 414.688 245.625C413.354 245 412.312 244.229 411.562 243.312C410.812 242.396 410.312 241.438 410.062 240.438C409.812 239.438 409.688 238.604 409.688 237.938C409.688 237.271 409.938 236.75 410.438 236.375C410.979 236 411.604 235.729 412.312 235.562C413.021 235.354 413.75 235.229 414.5 235.188C415.25 235.104 415.875 235.062 416.375 235.062C416.25 235.438 416.146 236.042 416.062 236.875C415.979 237.708 416.062 238.542 416.312 239.375C416.562 240.167 417.042 240.875 417.75 241.5C418.458 242.125 419.542 242.438 421 242.438C422.125 242.438 423.188 242.042 424.188 241.25C425.229 240.417 426.125 239.375 426.875 238.125C427.667 236.875 428.292 235.5 428.75 234C429.208 232.5 429.458 231.062 429.5 229.688C429.542 228.271 429.25 227.104 428.625 226.188C428 225.271 427.021 224.812 425.688 224.812C425.146 224.812 424.583 224.875 424 225C423.5 225.083 422.938 225.25 422.312 225.5C421.688 225.708 421.021 226 420.312 226.375L418.938 222.812C420.354 222.188 421.875 221.375 423.5 220.375C425.125 219.375 426.625 218.167 428 216.75C429.417 215.333 430.583 213.729 431.5 211.938C432.458 210.104 432.979 208.062 433.062 205.812C433.146 204.479 432.792 203.396 432 202.562C431.25 201.729 430.125 201.312 428.625 201.312C427.875 201.312 427.042 201.5 426.125 201.875C425.25 202.208 424.417 202.708 423.625 203.375C422.833 204 422.167 204.771 421.625 205.688C421.125 206.604 420.854 207.625 420.812 208.75C420.812 209.375 420.896 209.917 421.062 210.375C421.188 210.792 421.396 211.167 421.688 211.5C422.021 211.833 422.479 212 423.062 212C422.479 212.417 421.917 212.75 421.375 213C420.875 213.208 420.438 213.354 420.062 213.438C419.604 213.562 419.188 213.625 418.812 213.625C418.312 213.625 417.812 213.542 417.312 213.375C416.854 213.208 416.438 212.938 416.062 212.562C415.688 212.188 415.375 211.688 415.125 211.062C414.917 210.438 414.833 209.667 414.875 208.75C414.917 207.833 415.188 206.75 415.688 205.5C416.229 204.25 417.062 203.062 418.188 201.938C419.312 200.812 420.771 199.854 422.562 199.062C424.354 198.271 426.562 197.875 429.188 197.875C430.354 197.875 431.5 198.062 432.625 198.438C433.75 198.771 434.75 199.312 435.625 200.062C436.5 200.812 437.188 201.771 437.688 202.938C438.188 204.062 438.417 205.417 438.375 207C438.333 208.25 438.042 209.583 437.5 211C436.958 212.417 436.208 213.812 435.25 215.188C434.292 216.562 433.125 217.875 431.75 219.125C430.417 220.375 428.896 221.479 427.188 222.438C427.938 222.438 428.75 222.562 429.625 222.812C430.542 223.021 431.354 223.417 432.062 224C432.812 224.583 433.417 225.396 433.875 226.438C434.375 227.438 434.604 228.75 434.562 230.375Z" fill="#191919"/>
<path id="6" d="M227.25 443.562C226.25 443.562 225.208 443.271 224.125 442.688C223.083 442.146 222.125 441.25 221.25 440C220.417 438.708 219.708 437.021 219.125 434.938C218.583 432.854 218.292 430.292 218.25 427.25C218.208 425.333 218.438 423.208 218.938 420.875C219.438 418.542 220.125 416.188 221 413.812C221.917 411.396 223 409.062 224.25 406.812C225.5 404.562 226.854 402.562 228.312 400.812C229.812 399.062 231.375 397.667 233 396.625C234.667 395.542 236.375 395 238.125 395C240.083 395 241.417 395.417 242.125 396.25C242.875 397.083 243.354 398.188 243.562 399.562C243.646 400.146 243.688 400.792 243.688 401.5C243.729 402.167 243.667 402.833 243.5 403.5C243.375 404.167 243.146 404.792 242.812 405.375C242.479 405.917 242.021 406.354 241.438 406.688C240.938 406.938 240.438 407.125 239.938 407.25C239.479 407.375 238.958 407.438 238.375 407.438C237.792 407.438 237.188 407.333 236.562 407.125C237.271 405.958 237.812 404.854 238.188 403.812C238.562 402.729 238.771 401.792 238.812 401C238.896 400.167 238.792 399.521 238.5 399.062C238.25 398.562 237.854 398.312 237.312 398.312C236.562 398.312 235.646 398.792 234.562 399.75C233.521 400.708 232.417 402.062 231.25 403.812C230.125 405.521 229.021 407.583 227.938 410C226.854 412.417 225.958 415.104 225.25 418.062C226.792 415.812 228.417 414.229 230.125 413.312C231.833 412.354 233.312 411.875 234.562 411.875C235.271 411.875 236.083 412 237 412.25C237.917 412.5 238.771 413.021 239.562 413.812C240.354 414.562 241.021 415.625 241.562 417C242.146 418.375 242.438 420.188 242.438 422.438C242.438 424.688 242.042 427.062 241.25 429.562C240.458 432.021 239.354 434.292 237.938 436.375C236.562 438.458 234.938 440.188 233.062 441.562C231.229 442.896 229.292 443.562 227.25 443.562ZM224.5 421.938C224.292 423.271 224.125 424.667 224 426.125C223.917 427.542 223.875 429 223.875 430.5C223.875 430.958 223.938 431.708 224.062 432.75C224.188 433.792 224.396 434.833 224.688 435.875C225.021 436.917 225.458 437.833 226 438.625C226.542 439.417 227.25 439.812 228.125 439.812C229.292 439.812 230.438 439.146 231.562 437.812C232.688 436.438 233.688 434.771 234.562 432.812C235.479 430.812 236.188 428.729 236.688 426.562C237.229 424.354 237.5 422.396 237.5 420.688C237.458 418.979 237.188 417.646 236.688 416.688C236.229 415.688 235.479 415.188 234.438 415.188C233.562 415.188 232.771 415.479 232.062 416.062C231.396 416.646 230.792 417.354 230.25 418.188C229.708 418.979 229.25 419.812 228.875 420.688C228.5 421.562 228.188 422.312 227.938 422.938C227.479 424.021 227.104 424.604 226.812 424.688C226.562 424.729 226.167 424.458 225.625 423.875C225.333 423.667 225.104 423.396 224.938 423.062C224.771 422.688 224.625 422.312 224.5 421.938Z" fill="#191919"/>
<path id="9" d="M39.9375 197.938C41.6042 197.938 43 198.542 44.125 199.75C45.25 200.917 46.1042 202.5 46.6875 204.5C47.3125 206.458 47.6458 208.708 47.6875 211.25C47.7708 213.75 47.5833 216.333 47.125 219C46.2083 224.375 44.9167 228.833 43.25 232.375C41.5833 235.917 39.8125 238.729 37.9375 240.812C36.0625 242.896 34.1875 244.354 32.3125 245.188C30.4792 246.062 28.8958 246.5 27.5625 246.5C26.9375 246.5 26.25 246.354 25.5 246.062C24.75 245.812 24.0417 245.417 23.375 244.875C22.75 244.333 22.2292 243.667 21.8125 242.875C21.3958 242.083 21.2083 241.188 21.25 240.188C21.3333 239.479 21.5 238.75 21.75 238C21.9583 237.375 22.2708 236.729 22.6875 236.062C23.1458 235.354 23.75 234.75 24.5 234.25C24.7083 235.958 25.0417 237.271 25.5 238.188C26 239.062 26.5208 239.708 27.0625 240.125C27.6875 240.583 28.375 240.854 29.125 240.938C30.2917 240.938 31.5417 240.375 32.875 239.25C34.25 238.083 35.5625 236.542 36.8125 234.625C38.1042 232.708 39.2917 230.521 40.375 228.062C41.4583 225.562 42.3125 222.979 42.9375 220.312C42.4792 221.312 41.875 222.438 41.125 223.688C40.4167 224.896 39.5625 226.042 38.5625 227.125C37.5625 228.167 36.4167 229.062 35.125 229.812C33.875 230.521 32.4583 230.875 30.875 230.875C29.1667 230.875 27.8333 230.396 26.875 229.438C25.9583 228.479 25.25 227.292 24.75 225.875C24.2917 224.458 24.0208 222.979 23.9375 221.438C23.8542 219.854 23.8542 218.458 23.9375 217.25C23.9792 216.458 24.1458 215.438 24.4375 214.188C24.7708 212.896 25.2083 211.542 25.75 210.125C26.3333 208.667 27.0417 207.229 27.875 205.812C28.75 204.354 29.7708 203.042 30.9375 201.875C32.1458 200.708 33.4792 199.771 34.9375 199.062C36.4375 198.312 38.1042 197.938 39.9375 197.938ZM43.0625 213.562C43.2292 211.938 43.2917 210.375 43.25 208.875C43.25 207.333 43.125 205.979 42.875 204.812C42.625 203.646 42.2292 202.708 41.6875 202C41.1875 201.292 40.5 200.938 39.625 200.938C38.5417 200.938 37.3958 201.438 36.1875 202.438C34.9792 203.396 33.8542 204.708 32.8125 206.375C31.7708 208.042 30.875 209.958 30.125 212.125C29.375 214.25 28.9375 216.479 28.8125 218.812C28.7292 220.396 28.7917 221.729 29 222.812C29.25 223.854 29.5625 224.688 29.9375 225.312C30.3542 225.938 30.8125 226.396 31.3125 226.688C31.8125 226.938 32.2917 227.062 32.75 227.062C33.75 227.062 34.6875 226.604 35.5625 225.688C36.4375 224.729 37.2083 223.625 37.875 222.375C38.5833 221.083 39.1667 219.771 39.625 218.438C40.125 217.062 40.4792 215.958 40.6875 215.125C40.8542 214.417 41.0833 213.979 41.375 213.812C41.6667 213.604 42.2292 213.521 43.0625 213.562Z" fill="#191919"/>
</g>
<rect id="Minutar" x="228" y="71" width="7" height="164" rx="3.5" fill="#C44536"/>
<rect id="Orar" x="337.121" y="158.963" width="7" height="131.304" rx="3.5" transform="rotate(57 337.121 158.963)" fill="#C44536"/>
<circle id="Centru" cx="231.5" cy="231.5" r="11.5" fill="#197278"/>
</g>
<defs>
<filter id="filter0_d" x="0" y="0" width="473" height="473" filterUnits="userSpaceOnUse" color-interpolation-filters="sRGB">
<feFlood flood-opacity="0" result="BackgroundImageFix"/>
<feColorMatrix in="SourceAlpha" type="matrix" values="0 0 0 0 0 0 0 0 0 0 0 0 0 0 0 0 0 0 127 0"/>
<feOffset dx="11" dy="11"/>
<feColorMatrix type="matrix" values="0 0 0 0 0 0 0 0 0 0 0 0 0 0 0 0 0 0 0.39 0"/>
<feBlend mode="normal" in2="BackgroundImageFix" result="effect1_dropShadow"/>
<feBlend mode="normal" in="SourceGraphic" in2="effect1_dropShadow" result="shape"/>
</filter>
</defs>
</svg>
